<svg id="Capa_1" enable-background="new 0 0 512.236 512.236" height="512" viewBox="0 0 512.236 512.236" width="512" xmlns="http://www.w3.org/2000/svg" xmlns:xlink="http://www.w3.org/1999/xlink"><linearGradient id="SVGID_1_" gradientUnits="userSpaceOnUse" x1="87.625" x2="175.526" y1="442.316" y2="354.415"><stop offset="0" stop-color="#addcff"/><stop offset=".5028" stop-color="#eaf6ff"/><stop offset="1" stop-color="#eaf6ff"/></linearGradient><linearGradient id="SVGID_2_" gradientUnits="userSpaceOnUse" x1="22.385" x2="456.598" y1="507.566" y2="73.353"><stop offset="0" stop-color="#5558ff"/><stop offset="1" stop-color="#00c0ff"/></linearGradient><g><g><g><path d="m103.001 281.89c-.601 3.6-.3 6.601.298 12.9 2.401 18.001 7.5 60-17.699 85.501l5.701 65.701 58.199-1.801c24.899-24.9 67.5-19.801 85.499-17.4 6.301.601 9.6.901 12.9.3z" fill="url(#SVGID_1_)"/></g></g><g><g><path d="m85.3 380.889-81.364 87.901c-3.9 4.5-5.099 10.799-2.701 16.201 2.401 5.4 7.8 9 13.801 9h75c3.6 0 7.5-1.5 10.201-3.9l49.264-45.899-63.9-63.9c0 .299 0 .299-.301.597zm413.819-265.001-84.902-84.917c-17.021-16.992-46.904-16.948-63.809.015l-243.311 243.603c-5.859 5.859-5.859 15.352 0 21.211l127.207 127.192c5.86 5.859 15.352 5.859 21.211 0l243.604-243.604c17.49-17.489 17.49-45.98 0-63.5z" fill="url(#SVGID_2_)"/></g></g></g></svg>